/vscmnt/brussel_pixiu_data/_data_brussel/112/vsc11236/PredSimResults/SUBJ11opt3D/weighted-LRposFixed/expIG/worker_03.mot
version=1
nRows=4
nColumns=50
inDegrees=yes
endheader
                time	         pelvis_tilt	         pelvis_list	     pelvis_rotation	           pelvis_tx	           pelvis_ty	           pelvis_tz	       hip_flexion_r	     hip_adduction_r	      hip_rotation_r	        knee_angle_r	       ankle_angle_r	         mtp_angle_r	       hip_flexion_l	     hip_adduction_l	      hip_rotation_l	        knee_angle_l	       ankle_angle_l	         mtp_angle_l	    lumbar_extension	      lumbar_bending	     lumbar_rotation	 ercspn_r/activation	 intobl_r/activation	 extobl_r/activation	    abd_r/activation	    add_r/activation	hamstrings_r/activation	bifemsh_r/activation	glut_max_r/activation	iliopsoas_r/activation	rect_fem_r/activation	  vasti_r/activation	gastroc_r/activation	 soleus_r/activation	tib_ant_r/activation	 ercspn_l/activation	 intobl_l/activation	 extobl_l/activation	    abd_l/activation	    add_l/activation	hamstrings_l/activation	bifemsh_l/activation	glut_max_l/activation	iliopsoas_l/activation	rect_fem_l/activation	  vasti_l/activation	gastroc_l/activation	 soleus_l/activation	tib_ant_l/activation	
          0.00000000	         -2.81524592	         -1.38080441	          6.08007890	          0.00000000	          0.94159829	         -0.00485810	         31.11406039	         -1.47162250	         -4.09582258	         -9.63993663	          1.81392649	          0.22588753	        -13.57724609	         -3.29614212	         -1.20332520	        -11.82008675	         13.11623589	         28.88702343	        -14.27347303	         -2.36867059	         -3.29291522	          0.02948092	          0.26125686	          0.07020868	          0.00999999	          0.20504960	          0.04430744	          0.14012953	          0.03455842	          0.11200255	          0.04426431	          0.01849158	          0.00999999	          0.00999999	          0.41062753	          0.00999999	          0.00999999	          0.00999999	          0.04255779	          0.00999999	          0.02242961	          0.30800996	          0.02839681	          0.19425479	          0.00999999	          0.00999999	          0.17190311	          0.33826222	          0.01496490	
          0.01392737	         -2.96402251	         -1.44163247	          6.19878932	          0.01867649	          0.93925088	         -0.00358916	         30.98842429	         -1.27593440	         -4.31258717	        -10.85405091	          1.29219925	          0.23262972	        -14.11815648	         -3.56504279	         -1.54397027	        -12.56926742	         12.38348758	         30.72086440	        -13.80594249	         -1.84487971	         -3.49951350	          0.02392693	          0.21203801	          0.05698188	          0.00999999	          0.23787963	          0.04230784	          0.11373017	          0.09908180	          0.09090210	          0.03592524	          0.01500790	          0.01267536	          0.01232123	          0.43298309	          0.01539261	          0.00999999	          0.00999999	          0.03454022	          0.06086914	          0.02991801	          0.26196917	          0.02304706	          0.22996899	          0.00999999	          0.00999999	          0.14310176	          0.31893922	          0.01214563	
          0.02785473	         -3.08967649	         -1.51250031	          6.29774397	          0.03781747	          0.93717353	         -0.00226588	         30.74584187	         -1.09969708	         -4.43228337	        -12.17863196	          0.81869004	          0.20885944	        -14.51628452	         -3.85627292	         -1.89344699	        -13.63875058	         11.50144549	         32.65065673	        -13.29908627	         -1.30107256	         -3.70467609	          0.01941928	          0.17209162	          0.04624692	          0.05092670	          0.22444707	          0.05156096	          0.09230425	          0.12278037	          0.07377682	          0.02915720	          0.01218053	          0.01028741	          0.01000000	          0.50270609	          0.01249276	          0.00999999	          0.00999999	          0.02803310	          0.04940185	          0.02929643	          0.21261616	          0.01870516	          0.21646808	          0.00999999	          0.00999999	          0.11614246	          0.29344542	          0.00999999	
          0.04178210	         -3.19539553	         -1.57661778	          6.36618148	          0.05705799	          0.93558988	         -0.00085250	         30.49131547	         -0.94029040	         -4.63293310	        -13.47368392	          0.10887150	          0.18118177	        -14.67212919	         -4.15248006	         -2.25505468	        -15.14478480	         10.41952102	         34.68419496	        -12.79675643	         -0.76293361	         -3.89720950	          0.02824247	          0.13967084	          0.03753434	          0.08787167	          0.26989812	          0.05061380	          0.07491482	          0.12846269	          0.05987782	          0.02366420	          0.02540824	          0.00999999	          0.00999999	          0.56242756	          0.03828893	          0.00999999	          0.00999999	          0.02275187	          0.04682247	          0.03361664	          0.17256086	          0.01518125	          0.19720362	          0.00999999	          0.00999999	          0.09426208	          0.26471657	          0.00999999	
